<svg width="128" height="33" viewBox="0 0 128 33" fill="none" xmlns="http://www.w3.org/2000/svg">
<g clip-path="url(#clip0_411_218)">
<path d="M32.1183 32.4998C31.7942 32.4998 31.5144 32.3813 31.2788 32.1442C31.0431 31.9072 30.9253 31.6257 30.9253 31.2998V2.58867C30.9253 2.26275 31.0431 1.98126 31.2788 1.74423C31.5144 1.50719 31.7942 1.38867 32.1183 1.38867H41.1317C41.4557 1.38867 41.7356 1.50719 41.9712 1.74423C42.2068 1.98126 42.3247 2.26275 42.3247 2.58867V31.2998C42.3247 31.6257 42.2068 31.9072 41.9712 32.1442C41.7356 32.3813 41.4557 32.4998 41.1317 32.4998H32.1183Z" fill="#232321"/>
<path d="M1.19296 32.0554C0.868945 32.0554 0.589115 31.9369 0.353469 31.6999C0.117823 31.4629 0 31.1814 0 30.8554V2.14434C0 1.81841 0.117823 1.53693 0.353469 1.29989C0.589115 1.06285 0.868945 0.944336 1.19296 0.944336H9.63203C9.95605 0.944336 10.2359 1.06285 10.4715 1.29989C10.7072 1.53693 10.825 1.81841 10.825 2.14434V10.9443L15.8177 1.92211C15.965 1.68508 16.1761 1.46285 16.4609 1.25545C16.7407 1.04804 17.1138 0.944336 17.5851 0.944336H27.3497C27.6148 0.944336 27.8406 1.0431 28.037 1.23076C28.2284 1.42335 28.3217 1.65051 28.3217 1.92211C28.3217 2.09989 28.2775 2.26285 28.1892 2.411L20.2361 15.8332L28.9403 30.5888C29.0286 30.7073 29.0728 30.8703 29.0728 31.0777C29.0728 31.3443 28.9746 31.5764 28.7881 31.769C28.5966 31.9616 28.3708 32.0554 28.1008 32.0554H18.0269C17.4378 32.0554 17.0009 31.9172 16.726 31.6308C16.4461 31.3493 16.2743 31.1517 16.2154 31.0332L10.825 21.3443V30.8554C10.825 31.1814 10.7072 31.4629 10.4715 31.6999C10.2359 31.9369 9.95605 32.0554 9.63203 32.0554H1.19296Z" fill="#232321"/>
<path d="M58.8232 32.5C55.9955 32.5 53.4917 32.0852 51.312 31.2556C49.1323 30.4259 47.3993 29.1222 46.118 27.3444C44.8367 25.5667 44.1346 23.2704 44.0217 20.4556C43.9923 19.2407 43.9775 17.937 43.9775 16.5444C43.9775 15.1519 43.9923 13.8185 44.0217 12.5444C44.1395 9.78889 44.8514 7.52222 46.1622 5.74444C47.473 3.96667 49.2256 2.64815 51.42 1.78889C53.6145 0.92963 56.0839 0.5 58.8232 0.5C60.7084 0.5 62.5248 0.717284 64.2824 1.14198C66.035 1.5716 67.6158 2.24815 69.0297 3.16667C70.4435 4.08519 71.5678 5.26543 72.4073 6.69753C73.2467 8.13457 73.6788 9.86296 73.7131 11.8778C73.7131 12.1444 73.6149 12.3765 73.4284 12.5691C73.2369 12.7617 73.0111 12.8556 72.7411 12.8556H63.7276C63.2563 12.8556 62.9078 12.7617 62.6869 12.5691C62.4659 12.3765 62.2696 12.0457 62.0928 11.5667C61.7688 10.6185 61.327 9.98148 60.7673 9.65556C60.2077 9.32963 59.5449 9.16667 58.7791 9.16667C57.807 9.16667 57.0313 9.42839 56.457 9.94691C55.8826 10.4654 55.5635 11.4086 55.5046 12.7667C55.4162 15.1963 55.4162 17.6852 55.5046 20.2333C55.5635 21.5963 55.8826 22.5395 56.457 23.0531C57.0313 23.5716 57.807 23.8333 58.7791 23.8333C59.5449 23.8333 60.2126 23.6556 60.787 23.3C61.3613 22.9444 61.7934 22.3222 62.0928 21.4333C62.2401 20.9296 62.4316 20.5889 62.6672 20.4111C62.9029 20.2333 63.2563 20.1444 63.7276 20.1444H72.7411C73.0062 20.1444 73.232 20.2432 73.4284 20.4309C73.6199 20.6235 73.7131 20.8506 73.7131 21.1222C73.6837 23.137 73.2517 24.8654 72.4073 26.3025C71.5678 27.7395 70.4435 28.9198 69.0297 29.8333C67.6158 30.7519 66.0301 31.4284 64.2824 31.8531C62.5248 32.2827 60.7084 32.5 58.8232 32.5Z" fill="#232321"/>
<path d="M99.8158 30.5888L91.1116 15.8332L99.0646 2.411C99.153 2.26285 99.1972 2.09989 99.1972 1.92211C99.1972 1.65545 99.1039 1.42829 98.9125 1.23569C98.721 1.0431 98.4903 0.944336 98.2252 0.944336H88.4606C87.9893 0.944336 87.6162 1.04804 87.3363 1.25545C87.0565 1.46285 86.8405 1.68508 86.6932 1.92211L82.2749 9.9073L81.7005 10.9443V2.14434C81.7005 1.81841 81.5827 1.53693 81.347 1.29989C81.1114 1.06285 80.8315 0.944336 80.5075 0.944336H72.0685C71.7444 0.944336 71.4646 1.06285 71.229 1.29989C71.1995 1.33446 71.1701 1.36409 71.1406 1.39866C71.1111 1.43322 71.0866 1.46779 71.067 1.50236C71.0424 1.53693 71.0228 1.57643 71.0031 1.611C70.9835 1.65051 70.9688 1.68508 70.954 1.72458C72.4759 2.77643 73.7229 4.10977 74.6507 5.69989C75.6571 7.42829 76.1873 9.49742 76.2217 11.848C76.2217 12.6629 75.9173 13.4036 75.3626 13.9666C74.8029 14.5246 74.0665 14.8308 73.286 14.8308H70.8755V18.169H73.286C74.0665 18.169 74.8029 18.4752 75.3577 19.0332C75.9173 19.6011 76.2217 20.3419 76.2217 21.1221C76.1873 23.5024 75.6571 25.5715 74.6507 27.2999C73.7229 28.89 72.4759 30.2233 70.954 31.2752C70.9688 31.3147 70.9835 31.3542 71.0031 31.3888C71.0424 31.4629 71.0866 31.5369 71.1406 31.6011C71.1701 31.6357 71.1995 31.6653 71.229 31.6999C71.4646 31.9369 71.7444 32.0554 72.0685 32.0554H80.5075C80.8315 32.0554 81.1114 31.9369 81.347 31.6999C81.5827 31.4629 81.7005 31.1814 81.7005 30.8554V21.3443L82.2749 22.3764L87.0909 31.0332C87.1498 31.1517 87.3216 31.3542 87.6015 31.6357C87.8813 31.9172 88.3133 32.0554 88.9024 32.0554H98.9763C99.2414 32.0554 99.4721 31.9616 99.6636 31.769C99.855 31.5764 99.9483 31.3443 99.9483 31.0777C99.9483 30.8703 99.9041 30.7073 99.8158 30.5888Z" fill="#232321"/>
<path d="M113.331 32.5C110.061 32.5 107.366 32.0556 105.245 31.1667C103.124 30.2778 101.534 29.1074 100.473 27.6556C99.413 26.2037 98.8533 24.663 98.7944 23.0333C98.7944 22.7667 98.8877 22.5395 99.0792 22.342C99.2706 22.1494 99.4965 22.0556 99.7616 22.0556H108.156C108.628 22.0556 108.986 22.1198 109.241 22.2531C109.492 22.3864 109.762 22.5741 110.061 22.8062C110.356 23.0136 110.655 23.2012 110.965 23.3593C111.274 23.5222 111.627 23.6407 112.025 23.7148C112.423 23.7889 112.855 23.8284 113.331 23.8284C114.332 23.8284 115.133 23.7148 115.736 23.4926C116.34 23.2704 116.645 22.9691 116.645 22.584C116.645 22.2284 116.473 21.9321 116.134 21.6951C115.795 21.458 115.211 21.2457 114.386 21.0531C113.562 20.8605 112.413 20.6728 110.94 20.5C108.613 20.1741 106.595 19.6259 104.887 18.8556C103.178 18.0852 101.858 17.0284 100.935 15.6753C100.007 14.3272 99.5456 12.6728 99.5456 10.7173C99.5456 8.70247 100.11 6.92469 101.244 5.38395C102.378 3.84321 103.954 2.64321 105.972 1.78395C107.99 0.92963 110.341 0.5 113.022 0.5C115.231 0.5 117.19 0.78642 118.898 1.3642C120.606 1.94198 122.05 2.69753 123.228 3.63086C124.406 4.5642 125.305 5.56667 125.923 6.63333C126.542 7.7 126.866 8.72222 126.895 9.7C126.895 9.96667 126.797 10.1988 126.61 10.3914C126.419 10.584 126.203 10.6778 125.967 10.6778H117.131C116.718 10.6778 116.384 10.6185 116.139 10.5C115.889 10.3815 115.628 10.2037 115.363 9.96667C115.216 9.81852 114.941 9.65062 114.543 9.45309C114.146 9.26049 113.64 9.16667 113.017 9.16667C112.28 9.16667 111.74 9.28025 111.406 9.50247C111.068 9.72469 110.896 10.0309 110.896 10.4111C110.896 10.6778 111.028 10.9296 111.293 11.1667C111.559 11.4037 112.045 11.6111 112.752 11.7889C113.458 11.9667 114.475 12.1444 115.8 12.3222C118.746 12.6778 121.107 13.2506 122.894 14.0309C124.676 14.816 125.972 15.863 126.782 17.1667C127.592 18.4704 128 20.0852 128 22.0111C128 24.1741 127.357 26.0407 126.075 27.6111C124.794 29.1815 123.046 30.3864 120.837 31.2309C118.628 32.0753 116.129 32.5 113.331 32.5Z" fill="#232321"/>
</g>
<defs>
<clipPath id="clip0_411_218">
<rect width="128" height="32" fill="white" transform="translate(0 0.5)"/>
</clipPath>
</defs>
</svg>
